<?xml version="1.0" encoding="utf-8"?>
<svg viewBox="0 0 521.4 1252.69" xmlns="http://www.w3.org/2000/svg">
  <defs>
    <style>.cls-1,.cls-13,.cls-14,.cls-5{fill:none;}.cls-1{stroke:#424d76;}.cls-1,.cls-5{stroke-linecap:round;}.cls-1,.cls-12,.cls-14,.cls-2,.cls-3{stroke-miterlimit:10;}.cls-1,.cls-2,.cls-3{stroke-width:5px;}.cls-10,.cls-12,.cls-2{fill:#fff;}.cls-14,.cls-2,.cls-3{stroke:#ffb000;}.cls-3{fill:#ffd880;}.cls-4{fill:#ffb000;}.cls-13,.cls-5{stroke:#fff;stroke-linejoin:round;}.cls-5{stroke-width:4px;}.cls-6{fill:#424d76;}.cls-7{fill:#c36f0b;}.cls-8{fill:#6562cf;}.cls-9{fill:#eaeaff;}.cls-11{fill:#b65a18;}.cls-12{stroke:#6562cf;stroke-width:7px;}.cls-13{stroke-width:6px;}.cls-14{stroke-width:3px;}</style>
  </defs>
  <g id="Layer_2" data-name="Layer 2">
    <g id="Слой_1" data-name="Слой 1">
      <g id="_1" data-name="1">
        <g id="CHAIR">
          <line class="cls-1" x1="218.59" y1="1114.59" x2="374.93" y2="1114.59"/>
          <line class="cls-1" x1="164.38" y1="771.7" x2="439.14" y2="1218.8"/>
          <line class="cls-1" x1="429.14" y1="771.7" x2="154.38" y2="1218.8"/>
          <path class="cls-2" d="M486.06,734.51c0,3.81-8.53,7.39-23.52,10.5-32.25,6.7-94.41,11.24-165.78,11.24S163.23,751.71,131,745c-15-3.11-23.52-6.69-23.52-10.5,0-12,84.75-21.74,189.3-21.74S486.06,722.5,486.06,734.51Z"/>
          <path class="cls-3" d="M 486.06 734.51 L 486.06 755.51 C 486.06 767.51 401.3 777.25 296.76 777.25 C 282.507 777.25 268.623 777.069 255.27 776.726 C 170.684 774.555 107.46 765.883 107.46 755.51 L 107.46 734.51 C 107.46 738.32 115.99 741.9 130.98 745.01 C 157.709 750.563 204.978 754.632 261.018 755.863 C 272.592 756.117 284.541 756.25 296.76 756.25 C 368.14 756.25 430.29 751.71 462.54 745 C 477.53 741.9 486.06 738.32 486.06 734.51 Z" style="fill: rgb(224, 224, 224); stroke: rgb(66, 77, 118);"/>
        </g>
        <g id="CHARACTER">
          <g id="LEGS">
            <path class="cls-4" d="M266.23,1064.52c8.37,4.78,26.28,5.31,29.47,17.58s-14.34,60.85-11.55,78,2.54,53.77-25.88,57.73c-31.45,4.38-55.34-6.37-55.34-18.32S221.25,1174,224,1153.7s10-64.1,10-64.1Z" style="fill: rgb(101, 98, 207);"/>
            <path class="cls-5" d="M226.12,1118s13.27-11.5,33.62,0"/>
            <path class="cls-5" d="M223.12,1132s13.27-11.5,33.62,0"/>
            <path class="cls-5" d="M220.12,1146s13.27-11.5,33.62,0"/>
            <path class="cls-4" d="M373.48,1124.82c-5.32,7.78-36,26.89-34.39,35.65s29.86,34.24,31.85,47.77-.79,33.84,11.15,39.82,75.25,6.37,85.6,0-.8-26.68-11.95-31.06-41-54.14-39.28-84.8Z" style="fill: rgb(101, 98, 207); stroke: rgb(186, 218, 85);"/>
            <path class="cls-5" d="M429.57,1160.75s-13.27-11.5-33.62,0"/>
            <path class="cls-5" d="M434.57,1174.75s-13.27-11.5-33.62,0"/>
            <path class="cls-5" d="M440.57,1188.75s-13.27-11.5-33.62,0"/>
            <path class="cls-6" d="M183.25,586.83S0,659.79,0,722.56c0,111.93,156.27,318,188.25,314.91s53.51-28.88,52.28-42.41-59-187.64-100.28-246.69c0,0,126.12-32,142.73-32.6s102.11,45.52,103.34,47.36-44.2,126.56-17.84,289.1c3.69,22.76,72.58,27.68,79.35,18.46s83-330.32,72.58-356.15-98-96.53-150.93-124.71C331.34,569.53,183.25,586.83,183.25,586.83Z"/>
            <path class="cls-7" d="M426.69,1103.34c-1.14,3.52-6.55,20.09-10.23,28.86-3.52,8.37-47.37,5.53-43-7.39,3.73-11,3.79-26,3.72-30.22C384.36,1097.44,404.72,1104.59,426.69,1103.34Z"/>
            <path class="cls-8" d="M427.53,1103.29l12.25-29.18s-39.77,4.94-66.3-13.39l1,32.72S402.06,1106,427.53,1103.29Z"/>
            <path class="cls-7" d="M248.15,1030.09s14.5,30.05,18.08,34.43-16.32,26.67-32.24,25.08l-25.44-34.29S235.84,1050.21,248.15,1030.09Z"/>
            <path class="cls-8" d="M238.91,1003.73l10.24,26.36s-15.89,22.05-42.6,26.22l-18.3-18.84S222.52,1033.34,238.91,1003.73Z"/>
          </g>
          <g id="T-SHIRT">
            <path class="cls-9" d="M356.33,211c16.18,11.89,60.14,32.68,87.5,51.83,22.07,15.45,41.76,83,41.76,83s-30.73,31.34-82.35,43.63c0,0-29.5,91-40.56,197.28,0,0-94.65,35-180.07,0,0,0-34.42-194.82-38.72-196s-68.08-20.75-89-52.1c0,0,24.67-71.07,58.3-85,36.54-15.14,85.23-35.89,102.17-45C224,203.92,356.33,211,356.33,211Z" style="fill: rgb(24, 67, 167);"/>
            <path class="cls-10" d="M377.9,489.35q-.81,3.93-1.61,8h0l-76.43,103.1c-1.55.17-3.1.34-4.68.49Z"/>
            <path class="cls-10" d="M370,532.42c-.39,2.45-.79,4.91-1.17,7.39L327,596.21c-1.63.32-3.31.65-5,1Z"/>
          </g>
          <g id="HANDS">
            <g id="RIGHT">
              <path class="cls-7" d="M515,507.3c-2.26,42-81.92,81-123.93,98.7-1.39,8.7-7.1,12.51-18.08,15.34-22.89,5.9-20.74,21-21.92,23.88-1.85,4.59-24.43,9.82-29.86,6-3.23-2.29,5.89-31.05,11.08-41.16,3.23-6.29,24.87-18.2,39.06-23.33,0,0,72-87.27,81.86-92.19,0,0-26.63-73-37.77-99.27-1.59-3.77-2.87-6.57-3.7-8.06,0,0,40-12,67.06-35.3,0,0,2.45,6.11,6.06,16.16C495.73,398.33,517.29,464.39,515,507.3Z"/>
              <path class="cls-11" d="M484.85,368.06c-5.6,5.95-22.62,18.84-69.42,27.2-1.6-3.76-2.88-6.57-3.71-8.06,0,0,40-12,67.07-35.3C478.79,351.9,481.23,358,484.85,368.06Z"/>
            </g>
            <g id="LEFT">
              <path class="cls-7" d="M226.85,650.21c-6.07,2.68-24.2-2.34-25.86-5s-4-19.2-21.91-24.88c-12.82-4.07-18.64-8.12-18.42-20.77-37.27-12.73-136.38-50.49-140.87-93.36-3-28.6,26.91-110.41,39.4-143,3.27-8.51,5.34-13.67,5.34-13.67,28.81,24,66.2,36.52,66.2,36.52l-3.09,8.47L91.57,493.3c16.42,6.23,76.22,79.67,85.54,91.2,19.43,3.76,40.24,17.27,42.67,24.55C222.33,616.68,233.1,647.44,226.85,650.21Z"/>
              <path class="cls-11" d="M64.54,349.51c28.8,24,66.2,36.52,66.2,36.52l-3.09,8.46c-19.75-3.12-52.19-10.75-68.45-31.32C62.46,354.67,64.54,349.51,64.54,349.51Z"/>
            </g>
          </g>
          <g id="LAPTOP">
            <path class="cls-12" d="M419.4,677.63H129.85L81.11,486.05A17.53,17.53,0,0,1,98,463.67H451.29a17.53,17.53,0,0,1,16.85,22.38Z"/>
            <path class="cls-8" d="M410.62,675.83h-272l-45.79-180c-3-10.53-5.12-23,5.83-23H450.58c10.95,0,8.86,12.49,5.83,23Z" style="fill: rgb(191, 203, 255);"/>
            <path class="cls-13" d="M291.18,589.74H258.07a5,5,0,0,1-4.84-3.77l-3.95-21.33a2.3,2.3,0,0,1,2.21-2.93h46.27a2.3,2.3,0,0,1,2.21,2.93L296,586A5,5,0,0,1,291.18,589.74Z"/>
          </g>
          <g id="HEAD">
            <path id="NECK" class="cls-11" d="M318.63,152s-1.64,36,37.7,59c0,0-39,28.4-71.29,64.88,0,0-34.6-42.31-69.65-67.33,0,0,34.41-27.05,34.41-56.54Z"/>
            <path id="HEAD-2" data-name="HEAD" class="cls-7" d="M352.11,132.18c-3.95,5.18-11.08,14.89-14.52,21.86-6.12,33.19-27,55.15-53.47,55.15-22.94,0-38.44-25.72-45.58-49.63,0,0,0,0,0,0a10.89,10.89,0,0,1-.42-1.33c-1.77-6.59-11.36-19.7-16.18-26a4.42,4.42,0,0,1,1.33-6.52c5.88-3.37,8.93-.92,10.53,2.28-.85-23.91.14-49,14.06-49.14,16-.15,69.21-1.2,78.43,1.88,7.93,2.64,13.16,13.75,13.18,49.26,1.25-4,4.25-8.33,11.31-4.28A4.42,4.42,0,0,1,352.11,132.18Z"/>
            <g id="HAIR">
              <path class="cls-4" d="M361.67,88.67c-10.58,13.3-23.11,44.09-23.11,44.09s4.55-47.66-13.89-47.14c-8.77.24-26.41,12.53-44.88,10.53-15.34-1.66-34.5-22.48-42.39-8.87-4.37,10.43-4.06,26.8-3.4,43.64-4.71-21.55-14.45-35.89-19.8-44.45-11.24-5.83-20.06-18.31-17.52-31C201,34,217.55,35.2,217.55,35.2,245.46,38.09,229.17,21.82,263,6.45s72.31-.82,75.62,17.7c2.28,12.7,10.09,6.34,22.32,12C378.12,44.17,374.1,73,361.67,88.67Z" style="fill: rgb(0, 0, 0);"/>
              <path class="cls-14" d="M 260.88 103.08 C 278.857 105.357 290.687 103.066 299.562 99.517 C 314.069 93.715 320.679 84.55 333.33 86.48" style="fill: rgb(0, 0, 0);"/>
            </g>
          </g>
        </g>
      </g>
    </g>
  </g>
</svg>